<svg xmlns="http://www.w3.org/2000/svg" version="1.1" xmlns:xlink="http://www.w3.org/1999/xlink" width="512" height="512"><svg xmlns="http://www.w3.org/2000/svg" version="1.1" xmlns:xlink="http://www.w3.org/1999/xlink" width="512" height="512"><svg version="1.1" xmlns="http://www.w3.org/2000/svg" width="512" height="512">
<path d="M0 0 C168.96 0 337.92 0 512 0 C512 168.96 512 337.92 512 512 C343.04 512 174.08 512 0 512 C0 343.04 0 174.08 0 0 Z " fill="#FDFDFE" transform="translate(0,0)"></path>
<path d="M0 0 C0.75763641 0.00149048 1.51527283 0.00298096 2.29586792 0.0045166 C15.3527577 0.05040896 28.07953327 0.91336065 40.9375 3.3125 C41.74413086 3.46235352 42.55076172 3.61220703 43.38183594 3.76660156 C68.49946696 8.59730969 93.23689644 17.69139576 114.9375 31.3125 C115.66662598 31.76882812 116.39575195 32.22515625 117.14697266 32.6953125 C127.42215666 39.19358993 136.86278607 46.23458061 145.9375 54.3125 C146.96810547 55.17875 146.96810547 55.17875 148.01953125 56.0625 C158.30565598 64.72449977 167.94583242 74.49937492 175.9375 85.3125 C176.41010254 85.93576172 176.88270508 86.55902344 177.36962891 87.20117188 C185.5983853 98.06485149 192.74930509 109.16810005 198.9375 121.3125 C199.47648926 122.36969238 199.47648926 122.36969238 200.02636719 123.44824219 C225.1891837 173.47238524 230.63447867 232.49505617 214.9375 286.3125 C214.7418042 286.99900635 214.5461084 287.6855127 214.34448242 288.39282227 C208.10581588 309.99590877 198.72944739 330.7716424 185.9375 349.3125 C185.50663086 349.94945801 185.07576172 350.58641602 184.63183594 351.24267578 C176.89349407 362.62641675 168.33384146 372.7474434 158.67626953 382.54736328 C157.20743721 384.03846938 155.75599321 385.54667425 154.30859375 387.05859375 C136.78839733 405.14294677 114.59082908 418.64436247 91.9375 429.3125 C91.03 429.75078125 90.1225 430.1890625 89.1875 430.640625 C76.50832623 436.62000808 62.71356837 440.72458583 48.9375 443.3125 C48.60878906 441.44271484 48.60878906 441.44271484 48.2734375 439.53515625 C42.92598016 410.32203433 30.14073174 379.55531082 12.9375 355.3125 C8.05012444 355.70764951 3.32338362 356.17627752 -1.4375 357.375 C-13.16299533 359.84254886 -32.38521527 360.92521265 -42.75 354.25 C-45.0625 352.3125 -45.0625 352.3125 -46.0625 351.3125 C-46.10313832 349.64632885 -46.105221 347.97861905 -46.0625 346.3125 C-39.67047043 343.593722 -33.39543284 341.41965177 -26.625 339.875 C-25.74247559 339.66891113 -24.85995117 339.46282227 -23.95068359 339.25048828 C-10.6546819 336.21959644 2.8070824 333.85814926 16.25 331.578125 C54.93069134 324.62238665 92.51246858 305.19463833 115.6875 272.9375 C122.95645382 262.02756753 127.86562632 251.04765469 130.9375 238.3125 C131.27587891 237.07306641 131.27587891 237.07306641 131.62109375 235.80859375 C134.8489888 222.65213876 132.92155433 208.51166956 130.625 195.375 C130.36413178 193.82470157 130.10373427 192.27432387 129.84375 190.72387695 C126.1893428 169.21395501 121.9849128 147.79572607 117.8664093 126.37109375 C115.79806771 115.60750712 113.77643451 104.83559682 111.77539062 94.05932617 C111.16944773 90.80907331 110.55562982 87.56045616 109.9375 84.3125 C109.81630798 83.66831116 109.69511597 83.02412231 109.57025146 82.3604126 C109.1850324 80.32123549 108.79251302 78.28357596 108.3984375 76.24609375 C108.04724854 74.41195923 108.04724854 74.41195923 107.68896484 72.54077148 C106.47372881 67.32015221 104.80823766 63.8798748 100.625 60.375 C97.08312541 58.974724 94.71583108 58.77273842 90.9375 59.3125 C87.68370335 61.86162267 86.12024439 63.34467608 85.34375 67.45703125 C85.39015625 69.27267578 85.39015625 69.27267578 85.4375 71.125 C85.45377441 71.80151611 85.47004883 72.47803223 85.48681641 73.17504883 C86.04494876 87.93291683 88.52144154 102.75930082 90.9375 117.3125 C84.39850691 111.72711007 84.39850691 111.72711007 82.11328125 109.671875 C55.12537623 85.45631242 20.7475475 70.98254949 -15.0625 66.3125 C-15.72587372 66.22517105 -16.38924744 66.1378421 -17.07272339 66.04786682 C-22.83044907 65.34647115 -28.51161307 65.13775035 -34.30859375 65.109375 C-35.26879929 65.10231537 -36.22900482 65.09525574 -37.2183075 65.08798218 C-67.26485446 64.86783607 -67.26485446 64.86783607 -97.0625 68.3125 C-98.78726563 68.61849121 -98.78726563 68.61849121 -100.546875 68.93066406 C-124.63963843 73.33271951 -147.3888424 79.76917188 -169.89160156 89.41650391 C-172.57279364 90.52311377 -175.29249295 91.45425191 -178.0625 92.3125 C-170.16531208 74.9307497 -150.29504825 57.52566521 -135.0625 46.3125 C-134.00675781 45.52488281 -132.95101562 44.73726562 -131.86328125 43.92578125 C-93.45604136 15.64696381 -47.80914531 -0.23490519 0 0 Z " fill="#010101" transform="translate(255.0625,31.6875)"></path>
<path d="M0 0 C0.81210937 0.58523437 1.62421875 1.17046875 2.4609375 1.7734375 C22.80449605 16.97757073 35.22216175 38.11021456 39.58984375 63.0402832 C42.05477052 80.82737081 40.9590415 99.18454746 30 114 C9.49603842 140.09237338 -26.26077986 146.92221825 -57.48852539 150.85253906 C-64.36090047 151.67081693 -71.2416265 152.40601659 -78.125 153.125 C-79.34375824 153.25384583 -80.56251648 153.38269165 -81.81820679 153.51544189 C-88.90489108 154.26348627 -95.99321904 154.9932568 -103.08355713 155.70581055 C-105.53977883 155.95357625 -107.99533887 156.20662522 -110.45068359 156.46289062 C-125.59861386 158.00300913 -140.76491836 158.23251524 -155.9805603 158.34844971 C-158.15495042 158.36577616 -160.32930572 158.38859436 -162.50357056 158.41766357 C-188.63081833 158.72643295 -217.99167277 156.13797602 -238.34375 137.75390625 C-250.48538102 124.89637718 -253.39825137 110.52521066 -253.375 93.375 C-253.37338867 92.1375 -253.37177734 90.9 -253.37011719 89.625 C-253.24282584 80.1006119 -252.04977717 72.0111883 -249 63 C-248.72285156 61.989375 -248.44570312 60.97875 -248.16015625 59.9375 C-240.23680942 32.47963448 -218.34190772 12.20777685 -196 -4 C-195.15695313 -4.62777344 -194.31390625 -5.25554687 -193.4453125 -5.90234375 C-178.32175219 -16.66004609 -159.55577926 -21.65860891 -142 -27 C-140.88625 -27.34047363 -139.7725 -27.68094727 -138.625 -28.03173828 C-90.22298026 -42.31952811 -40.01120383 -29.03187613 0 0 Z " fill="#010101" transform="translate(296,163)"></path>
<path d="M0 0 C5.49474578 2.34671434 7.84983536 6.02510947 10.09155273 11.36010742 C11.75357896 16.18985468 12.42874231 21.15041133 13.1875 26.1875 C13.60557065 28.77831736 14.02761741 31.36810363 14.45703125 33.95703125 C14.57284546 34.6584021 14.68865967 35.35977295 14.8079834 36.08239746 C16.28531653 44.89720051 18.04762757 53.65667645 19.78863525 62.42242432 C23.84420762 82.84381635 27.70454916 103.2911621 31.26855469 123.80419922 C31.73332777 126.47912636 32.20621513 129.15212776 32.68457031 131.82470703 C37.77967238 160.30953649 37.478508 186.82182976 20.75 211.75 C10.69383205 225.44423554 -0.12072033 237.12401955 -14 247 C-14.81855469 247.598125 -15.63710938 248.19625 -16.48046875 248.8125 C-25.53417865 255.03062826 -35.87784033 258.87135418 -46 263 C-46.66 262.34 -47.32 261.68 -48 261 C-47.390625 258.2265625 -47.390625 258.2265625 -46.25 254.625 C-43.50004547 245.19642003 -42.68208962 235.76565364 -42 226 C-41.92620117 225.00726074 -41.85240234 224.01452148 -41.77636719 222.99169922 C-41.55837565 219.95374226 -41.36754966 216.91542363 -41.1875 213.875 C-41.08949097 212.44305298 -41.08949097 212.44305298 -40.98950195 210.98217773 C-40.945271 210.09860596 -40.90104004 209.21503418 -40.85546875 208.3046875 C-40.81059326 207.52077637 -40.76571777 206.73686523 -40.71948242 205.92919922 C-40.81205322 205.29256348 -40.90462402 204.65592773 -41 204 C-42.485 203.01 -42.485 203.01 -44 202 C-43.35933594 201.5153125 -42.71867187 201.030625 -42.05859375 200.53125 C-29.07435644 190.46894985 -21.32755684 179.30988626 -18 163 C-17.5903734 159.13377552 -17.52296455 155.32313335 -17.5625 151.4375 C-17.56862305 150.39827393 -17.57474609 149.35904785 -17.58105469 148.28833008 C-17.77072219 138.78963577 -19.34228223 130.09365453 -22 121 C-22.27714844 120.00226563 -22.55429687 119.00453125 -22.83984375 117.9765625 C-28.25346626 100.96232033 -40.33441762 87.04876873 -54 76 C-55.01049475 75.01060607 -56.01326282 74.01308921 -57 73 C-56.505 72.01 -56.505 72.01 -56 71 C-56.11983173 63.88463742 -58.21604576 57.23020522 -60.27148438 50.48632812 C-61.53427251 46.18990318 -62.2820203 42.53401874 -62 38 C-62.66 38 -63.32 38 -64 38 C-64.03738281 37.19175781 -64.07476562 36.38351563 -64.11328125 35.55078125 C-64.17902344 34.48214844 -64.24476563 33.41351563 -64.3125 32.3125 C-64.37050781 31.25675781 -64.42851562 30.20101562 -64.48828125 29.11328125 C-65.03860018 25.76515766 -66.2229119 23.84234539 -68 21 C-67.67 20.34 -67.34 19.68 -67 19 C-51.88539138 25.14348829 -37.56642938 32.47591574 -25 43 C-23.29185524 44.33357491 -21.58351459 45.66689893 -19.875 47 C-15.62017373 50.40386101 -11.73800858 54.03919621 -8 58 C-8.19335938 56.90945312 -8.38671875 55.81890625 -8.5859375 54.6953125 C-10.98116957 40.94005696 -13.07216802 27.16959257 -13.375 13.1875 C-13.40335937 11.92292969 -13.43171875 10.65835938 -13.4609375 9.35546875 C-12.91865724 5.40785225 -11.7802442 3.79574742 -9 1 C-5.84017111 -0.57991444 -3.49944139 -0.34420735 0 0 Z " fill="#E9E9EB" transform="translate(353,90)"></path>
<path d="M0 0 C1.76065399 3.52130798 1.56776625 7.14708717 0.421875 10.88671875 C-10.83158715 36.10470439 -45.66851672 51.5990918 -69.90625 61.21630859 C-76.81491785 63.80222555 -83.65832407 65.47631527 -91 64 C-94.06911139 61.78585535 -95.95684796 59.15393611 -98 56 C-98.721875 55.05125 -99.44375 54.1025 -100.1875 53.125 C-103.19620356 47.93758006 -105.37577227 42.65296785 -106.75 36.8125 C-105.46385999 31.98947498 -101.91505414 29.86800477 -98 27 C-96.989375 26.2471875 -95.97875 25.494375 -94.9375 24.71875 C-74.77650153 10.25876779 -24.60964375 -17.07607933 0 0 Z " fill="#FCFCFC" transform="translate(408,355)"></path>
<path d="M0 0 C5.22369483 2.31163507 8.44971719 5.79713077 11.7890625 10.33984375 C12.81 11.67015625 12.81 11.67015625 13.8515625 13.02734375 C22.68135399 28.12343889 25.53180746 46.32214338 22.06640625 63.53125 C19.84692546 71.86104228 17.17059642 79.28268401 9.9140625 84.33984375 C6.04161613 86.47911656 3.24180309 87.05546277 -1.2109375 86.33984375 C-10.24200738 83.56666674 -15.80982481 76.05629253 -20.4609375 68.21484375 C-25.83929799 57.54629261 -27.55903375 47.39494327 -27.6484375 35.58984375 C-27.65858887 34.64399414 -27.66874023 33.69814453 -27.67919922 32.72363281 C-27.5443966 21.81411348 -24.83076687 12.1066448 -18.2109375 3.33984375 C-12.96443072 -1.66818545 -6.78124469 -2.02478861 0 0 Z " fill="#FBFBFB" transform="translate(149.2109375,185.66015625)"></path>
<path d="M0 0 C9.00660633 5.38570716 13.15432035 14.3572924 15.93359375 24.18359375 C18.84910901 40.30952279 17.1097953 57.14278707 7.6875 70.8203125 C4.16063642 74.56092538 1.39280333 76.18337006 -3.75 76.4453125 C-9.33309899 76.21384073 -13.21900725 74.30373747 -17 70.27734375 C-28.33955301 56.0745536 -28.75154321 39.45154858 -27.375 22.0078125 C-26.01444973 13.74831033 -21.74581743 6.43797232 -15.375 1.0078125 C-10.44671258 -1.95901653 -5.31388063 -2.21994355 0 0 Z " fill="#FBFBFB" transform="translate(231.375,185.9921875)"></path>
<path d="M0 0 C1.258125 0.391875 2.51625 0.78375 3.8125 1.1875 C5.87346598 1.79687906 7.93623964 2.4001527 10 3 C10.63341309 3.18755859 11.26682617 3.37511719 11.91943359 3.56835938 C32.82126412 9.68886696 54.34243933 12.25268088 76 14 C74.70140105 17.41066415 73.21815473 20.56090657 71.42578125 23.73828125 C70.92618896 24.63345459 70.42659668 25.52862793 69.91186523 26.45092773 C69.38407471 27.39524658 68.85628418 28.33956543 68.3125 29.3125 C63.31192339 38.35870537 58.93003042 47.44312937 55 57 C54.0067491 59.3362864 53.00362296 61.66814013 52 64 C46.83229676 60.84682514 42.79173872 57.06098393 38.5625 52.75 C37.93279297 52.11964844 37.30308594 51.48929687 36.65429688 50.83984375 C29.51479717 43.63430551 23.07616958 36.04180504 17.0625 27.875 C16.45567383 27.05185303 15.84884766 26.22870605 15.22363281 25.38061523 C9.36404589 17.31625315 4.39914892 8.94924902 0 0 Z " fill="#040404" transform="translate(60,362)"></path>
<path d="M0 0 C6.53317917 5.53041214 9.4679463 12.68604805 10.17456055 21.0715332 C10.80258446 31.60837879 10.94699537 41.32002314 4 50 C1.02734072 52.13847117 -0.31193949 53 -4 53 C-9.15607864 51.28130712 -11.70368716 47.8435034 -14.1875 43.1875 C-19.09607163 32.47608256 -19.8388631 20.31703646 -15.91796875 9.125 C-14.26493913 5.29841229 -12.51637721 2.20264399 -9.1875 -0.4375 C-5.67932971 -1.33960093 -3.48437171 -1.02128136 0 0 Z " fill="#050505" transform="translate(205,420)"></path>
<path d="M0 0 C0.66 0 1.32 0 2 0 C2.86846831 1.74294678 3.71930627 3.49468663 4.5625 5.25 C5.27599609 6.71179688 5.27599609 6.71179688 6.00390625 8.203125 C7.04973068 11.13963595 7.14448714 12.1731793 6 15 C5.67 15.66 5.34 16.32 5 17 C3.68 16.67 2.36 16.34 1 16 C1.33 14.35 1.66 12.7 2 11 C1.34 10.67 0.68 10.34 0 10 C-0.44921875 7.96875 -0.44921875 7.96875 -0.6875 5.5 C-0.77386719 4.6853125 -0.86023438 3.870625 -0.94921875 3.03125 C-0.96597656 2.3609375 -0.98273438 1.690625 -1 1 C-0.67 0.67 -0.34 0.34 0 0 Z " fill="#E6E6E6" transform="translate(289,429)"></path>
<path d="M0 0 C0.66 1.32 1.32 2.64 2 4 C1.34 4 0.68 4 0 4 C0 4.66 0 5.32 0 6 C-1.8871875 5.7525 -1.8871875 5.7525 -3.8125 5.5 C-6.26456585 5.17841759 -8.51650694 5 -11 5 C-13.1875 3.5 -13.1875 3.5 -15 2 C-9.92523206 0.73694665 -5.27203646 -0.27036084 0 0 Z " fill="#DFDFE1" transform="translate(268,386)"></path>
<path d="M0 0 C1.82875404 2.74313106 2.72037028 4.77074949 3.6875 7.875 C3.95949219 8.71804688 4.23148437 9.56109375 4.51171875 10.4296875 C5.05258938 13.27683047 4.7420711 15.22096865 4 18 C2.35 17.67 0.7 17.34 -1 17 C-0.67 14.36 -0.34 11.72 0 9 C0.66 9.33 1.32 9.66 2 10 C1.484375 9.649375 0.96875 9.29875 0.4375 8.9375 C-1 7 -1 7 -0.6875 3.3125 C-0.460625 2.219375 -0.23375 1.12625 0 0 Z " fill="#E5E6E8" transform="translate(297,446)"></path>
<path d="M0 0 C1.65 0 3.3 0 5 0 C5 1.32 5 2.64 5 4 C3.46875 5.484375 3.46875 5.484375 1.5 6.75 C0.8503125 7.17796875 0.200625 7.6059375 -0.46875 8.046875 C-0.9740625 8.36140625 -1.479375 8.6759375 -2 9 C-2.66 8.34 -3.32 7.68 -4 7 C-3.34 6.34 -2.68 5.68 -2 5 C-1.29289322 3.35008418 -0.62056011 1.68437744 0 0 Z " fill="#E1E2E3" transform="translate(348,322)"></path>
<path d="M0 0 C1 3 1 3 0 6 C-0.66 6 -1.32 6 -2 6 C-1.79375 7.11375 -1.5875 8.2275 -1.375 9.375 C-1.25125 10.57125 -1.1275 11.7675 -1 13 C-1.66 13.66 -2.32 14.32 -3 15 C-3.99 14.34 -4.98 13.68 -6 13 C-5.01 13 -4.02 13 -3 13 C-3.66 12.67 -4.32 12.34 -5 12 C-5 11.34 -5 10.68 -5 10 C-5.66 9.67 -6.32 9.34 -7 9 C-4.69 6.03 -2.38 3.06 0 0 Z " fill="#DFE0E2" transform="translate(328,273)"></path>
<path d="M0 0 C2.72426311 2.35277269 3.8141763 4.62496331 5 8 C-1.875 9 -1.875 9 -3 9 C-3.26218749 5.85375007 -3.24754367 4.38162983 -1.5 1.6875 C-1.005 1.130625 -0.51 0.57375 0 0 Z " fill="#E1E1E1" transform="translate(275,399)"></path>
<path d="M0 0 C3.32993034 3.82941989 5.05324525 8.37522222 7 13 C5.35 13.33 3.7 13.66 2 14 C1.66179834 12.4176994 1.32964061 10.83410625 1 9.25 C0.814375 8.36828125 0.62875 7.4865625 0.4375 6.578125 C0 4 0 4 0 0 Z " fill="#E2E3E5" transform="translate(281,410)"></path>
<path d="M0 0 C0 3.54540188 -0.59385272 4.06007364 -2.875 6.625 C-3.40867187 7.23601562 -3.94234375 7.84703125 -4.4921875 8.4765625 C-6 10 -6 10 -8 11 C-8.65213292 13.02463255 -8.65213292 13.02463255 -9 15 C-9.99 14.01 -10.98 13.02 -12 12 C-8.04 8.04 -4.08 4.08 0 0 Z " fill="#EAEAEA" transform="translate(419,408)"></path>
<path d="M0 0 C0.66 0.99 1.32 1.98 2 3 C-0.64 5.97 -3.28 8.94 -6 12 C-6.33 11.01 -6.66 10.02 -7 9 C-5.69254251 7.31295807 -4.35827971 5.64639965 -3 4 C-3 3.01 -3 2.02 -3 1 C-2.01 1.33 -1.02 1.66 0 2 C0 1.34 0 0.68 0 0 Z " fill="#DBDCDE" transform="translate(365,308)"></path>
<path d="M0 0 C0.99 0.33 1.98 0.66 3 1 C2.67 3.64 2.34 6.28 2 9 C1.01 9 0.02 9 -1 9 C-1.33 10.32 -1.66 11.64 -2 13 C-1.85769192 11.58297487 -1.71099254 10.1663904 -1.5625 8.75 C-1.48128906 7.96109375 -1.40007812 7.1721875 -1.31640625 6.359375 C-1.02365007 4.17635361 -0.57935581 2.1226818 0 0 Z " fill="#E1E2E4" transform="translate(363,115)"></path>
<path d="M0 0 C3.00617269 3.00617269 2.59585316 5.82381598 3 10 C0.69 8.02 -1.62 6.04 -4 4 C-2.68 2.68 -1.36 1.36 0 0 Z " fill="#151516" transform="translate(343,139)"></path>
<path d="M0 0 C0.99 0.66 1.98 1.32 3 2 C2.67 3.98 2.34 5.96 2 8 C0.68 7.34 -0.64 6.68 -2 6 C-2 3 -2 3 0 0 Z " fill="#F3F3F3" transform="translate(420,97)"></path>
<path d="M0 0 C0 0.66 0 1.32 0 2 C-1.4562545 2.67119549 -2.91507867 3.33681807 -4.375 4 C-5.59316406 4.556875 -5.59316406 4.556875 -6.8359375 5.125 C-9 6 -9 6 -11 6 C-10.4375 4.125 -10.4375 4.125 -9 2 C-5.94821644 0.9100773 -3.25843762 0 0 0 Z " fill="#DDDDDF" transform="translate(319,346)"></path>
<path d="M0 0 C0.99 0.33 1.98 0.66 3 1 C3.80967438 3.91482778 4.21845993 5.46113217 3.0625 8.3125 C2.5365625 9.1478125 2.5365625 9.1478125 2 10 C0.4375 8.9375 0.4375 8.9375 -1 7 C-0.6875 3.3125 -0.6875 3.3125 0 0 Z " fill="#EEEFF1" transform="translate(324,185)"></path>
<path d="M0 0 C1.32 1.32 2.64 2.64 4 4 C3.01 4.99 2.02 5.98 1 7 C-0.32 6.34 -1.64 5.68 -3 5 C-1.125 1.125 -1.125 1.125 0 0 Z " fill="#F3F3F3" transform="translate(100,416)"></path>
<path d="M0 0 C0.66 0.66 1.32 1.32 2 2 C1.64644564 4.26274788 1.02455574 5.95088852 0 8 C-1.32 7.67 -2.64 7.34 -4 7 C-3.34 5.35 -2.68 3.7 -2 2 C-1.34 2 -0.68 2 0 2 C0 1.34 0 0.68 0 0 Z " fill="#DEDEDE" transform="translate(294,438)"></path>
<path d="M0 0 C0.66 0.33 1.32 0.66 2 1 C1.34 2.65 0.68 4.3 0 6 C-1.65 5.67 -3.3 5.34 -5 5 C-4.1875 3.0625 -4.1875 3.0625 -3 1 C-2.01 0.67 -1.02 0.34 0 0 Z " fill="#0C0C0C" transform="translate(462,335)"></path>
<path d="M0 0 C1.98 0.66 3.96 1.32 6 2 C5.34 3.32 4.68 4.64 4 6 C2.35 5.67 0.7 5.34 -1 5 C-0.67 3.35 -0.34 1.7 0 0 Z " fill="#DEDFE1" transform="translate(294,113)"></path>
<path d="M0 0 C0.66 0.33 1.32 0.66 2 1 C-0.44604317 6.74820144 -0.44604317 6.74820144 -3.0625 7.9375 C-5 8 -5 8 -7 7 C-4.69 4.69 -2.38 2.38 0 0 Z " fill="#1B1B1B" transform="translate(110,86)"></path>
<path d="M0 0 C2.45823172 3.68734758 3.01242616 6.69699971 4 11 C1.4375 9.4375 1.4375 9.4375 -1 7 C-0.8125 3.25 -0.8125 3.25 0 0 Z " fill="#D7D8DA" transform="translate(297,446)"></path>
<path d="M0 0 C0.99 0.33 1.98 0.66 3 1 C3.33 2.98 3.66 4.96 4 7 C1.625 7.1875 1.625 7.1875 -1 7 C-1.66 6.01 -2.32 5.02 -3 4 C-2.01 3.67 -1.02 3.34 0 3 C0 2.01 0 1.02 0 0 Z " fill="#D9DADC" transform="translate(345,144)"></path>
<path d="M0 0 C0.99 0.33 1.98 0.66 3 1 C-1.5 5.875 -1.5 5.875 -6 7 C-4.02 4.69 -2.04 2.38 0 0 Z " fill="#0F0F0F" transform="translate(99,97)"></path>
<path d="M0 0 C0.66 0.66 1.32 1.32 2 2 C-0.96283313 4.38672669 -3.94270509 6.7353371 -7 9 C-7 6 -7 6 -5.46875 4.39453125 C-4.49421875 3.61142578 -4.49421875 3.61142578 -3.5 2.8125 C-2.8503125 2.28269531 -2.200625 1.75289063 -1.53125 1.20703125 C-1.0259375 0.80871094 -0.520625 0.41039062 0 0 Z " fill="#ECECEC" transform="translate(399,427)"></path>
<path d="M0 0 C0.66 0 1.32 0 2 0 C1.34 1.32 0.68 2.64 0 4 C-0.66 4 -1.32 4 -2 4 C-2 4.66 -2 5.32 -2 6 C-3.65 6.66 -5.3 7.32 -7 8 C-6.02133662 6.85373678 -5.04205413 5.70800212 -4.0625 4.5625 C-3.51722656 3.92441406 -2.97195313 3.28632813 -2.41015625 2.62890625 C-1.63204305 1.73008851 -0.84063472 0.84063472 0 0 Z " fill="#E4E4E4" transform="translate(428,398)"></path>
<path d="M0 0 C6.52307692 -0.36923077 6.52307692 -0.36923077 8.9375 1.5 C9.288125 1.995 9.63875 2.49 10 3 C9.34 3.66 8.68 4.32 8 5 C7.13375 4.319375 7.13375 4.319375 6.25 3.625 C4.2199667 2.15886484 2.26460157 1.05142216 0 0 Z " fill="#DFDFDF" transform="translate(346,90)"></path>
<path d="M0 0 C0.99 0.33 1.98 0.66 3 1 C1.35 2.65 -0.3 4.3 -2 6 C-3.32 5.34 -4.64 4.68 -6 4 C-4.03617993 2.49440461 -2.21736634 1.10868317 0 0 Z " fill="#212121" transform="translate(162,52)"></path>
<path d="M0 0 C1.9375 0.3125 1.9375 0.3125 4 1 C4.33 1.99 4.66 2.98 5 4 C1.25 5.125 1.25 5.125 -1 4 C-0.67 2.68 -0.34 1.36 0 0 Z " fill="#EEEEEE" transform="translate(65,375)"></path>
<path d="M0 0 C2.125 0.375 2.125 0.375 4 1 C4 1.66 4 2.32 4 3 C2.35 3.66 0.7 4.32 -1 5 C-1.33 4.01 -1.66 3.02 -2 2 C-1.34 1.34 -0.68 0.68 0 0 Z " fill="#ECECEC" transform="translate(194,417)"></path>
<path d="M0 0 C1.32 0.33 2.64 0.66 4 1 C4.33 2.32 4.66 3.64 5 5 C3.02 5.99 3.02 5.99 1 7 C1 4 1 4 2 2 C1.34 1.34 0.68 0.68 0 0 Z " fill="#F1F1F1" transform="translate(370,393)"></path>
<path d="M0 0 C0.99 0 1.98 0 3 0 C2.39816251 2.02045442 1.72693904 4.02111039 1 6 C0.01 6.495 0.01 6.495 -1 7 C-1.04254356 5.00045254 -1.04080783 2.99958364 -1 1 C-0.67 0.67 -0.34 0.34 0 0 Z " fill="#D5D5D5" transform="translate(377,289)"></path>
<path d="M0 0 C1.98 0.66 3.96 1.32 6 2 C5.67 3.32 5.34 4.64 5 6 C4.01 6 3.02 6 2 6 C1.34 4.02 0.68 2.04 0 0 Z " fill="#E6E6E7" transform="translate(285,109)"></path>
</svg></svg><style>@media (prefers-color-scheme: light) { :root { filter: none; } }
@media (prefers-color-scheme: dark) { :root { filter: invert(100%); } }
</style></svg>